# xmcd
#
# Track frame offsets:
#	225
#	12458
#	21590
#	38517
#	51097
#	80775
#	93014
#	99979
#	113757
#	128858
#	139810
#	158550
#	169694
#	186178
#	196370
#	218589
#
# Disc length: 3143 seconds
#
# Revision: 0
# Processed by: cddbd v1.5.1PL0 Copyright (c) Steve Scherf et al.
# Submitted via: dBpowerAMP V4.0
#
DISCID=cf0c4410
DTITLE=Kings Countrymen - Kings Countrymen LIVE DISK 2
DYEAR=2004
DGENRE=Bluegrass
TTITLE0=When Angels Carry me Home
TTITLE1=Gloryland Way
TTITLE2=Life's Railway to Heaven
TTITLE3=Little Country Church
TTITLE4=This World Is Not My Home
TTITLE5=Swing Low Sweet Chariot
TTITLE6=Day Break In Glory
TTITLE7=Take Me In Your Lifeboat
TTITLE8=Cowboy's Dream
TTITLE9=I Saw The Light
TTITLE10=One Hundred White Horses
TTITLE11=Keep On The Sunny Side
TTITLE12=Brush Arbors
TTITLE13=I'm Using My Bible For A Roadmap
TTITLE14=Just A Closer Walk With thee
TTITLE15=Touch Of The Masters Hand
EXTD=
EXTT0=
EXTT1=
EXTT2=
EXTT3=
EXTT4=
EXTT5=
EXTT6=
EXTT7=
EXTT8=
EXTT9=
EXTT10=
EXTT11=
EXTT12=
EXTT13=
EXTT14=
EXTT15=
PLAYORDER=
